<?xml version="1.0" encoding="UTF-8" standalone="no"?><!DOCTYPE svg PUBLIC "-//W3C//DTD SVG 1.1//EN" "http://www.w3.org/Graphics/SVG/1.1/DTD/svg11.dtd"><!-- Generated by graphviz version 2.40.1 (20161225.0304)
 --><!-- Title: %0 Pages: 1 --><svg xmlns="http://www.w3.org/2000/svg" xmlns:xlink="http://www.w3.org/1999/xlink" width="417pt" height="310pt" viewBox="0.00 0.00 417.15 310.40">
<g id="graph0" class="graph" transform="scale(1 1) rotate(0) translate(4 306.4)">
<title>%0</title>
<polygon fill="#ffffff" stroke="transparent" points="-4,4 -4,-306.4 413.1487,-306.4 413.1487,4 -4,4"/>
<!-- UNKNOWN -->
<g id="node1" class="node">
<title>UNKNOWN</title>
<path fill="#add8e6" stroke="#000000" d="M300.8964,-302.4C300.8964,-302.4 235.1878,-302.4 235.1878,-302.4 229.1878,-302.4 223.1878,-296.4 223.1878,-290.4 223.1878,-290.4 223.1878,-278.4 223.1878,-278.4 223.1878,-272.4 229.1878,-266.4 235.1878,-266.4 235.1878,-266.4 300.8964,-266.4 300.8964,-266.4 306.8964,-266.4 312.8964,-272.4 312.8964,-278.4 312.8964,-278.4 312.8964,-290.4 312.8964,-290.4 312.8964,-296.4 306.8964,-302.4 300.8964,-302.4"/>
<text text-anchor="middle" x="268.0421" y="-280.2" font-family="Times,serif" font-size="14.00" fill="#000000">UNKNOWN</text>
</g>
<!-- HEALTHY -->
<g id="node2" class="node">
<title>HEALTHY</title>
<path fill="#add8e6" stroke="#000000" d="M70.1263,-213.6C70.1263,-213.6 11.9579,-213.6 11.9579,-213.6 5.9579,-213.6 -.0421,-207.6 -.0421,-201.6 -.0421,-201.6 -.0421,-189.6 -.0421,-189.6 -.0421,-183.6 5.9579,-177.6 11.9579,-177.6 11.9579,-177.6 70.1263,-177.6 70.1263,-177.6 76.1263,-177.6 82.1263,-183.6 82.1263,-189.6 82.1263,-189.6 82.1263,-201.6 82.1263,-201.6 82.1263,-207.6 76.1263,-213.6 70.1263,-213.6"/>
<text text-anchor="middle" x="41.0421" y="-191.4" font-family="Times,serif" font-size="14.00" fill="#000000">HEALTHY</text>
</g>
<!-- UNKNOWN&#45;&gt;HEALTHY -->
<g id="edge1" class="edge">
<title>UNKNOWN-&gt;HEALTHY</title>
<path fill="none" stroke="#000000" d="M222.9228,-266.7498C185.1378,-251.9687 131.233,-230.8817 91.9194,-215.5027"/>
<polygon fill="#000000" stroke="#000000" points="92.8454,-212.1067 82.2575,-211.723 90.2952,-218.6256 92.8454,-212.1067"/>
<text text-anchor="middle" x="212.5302" y="-235.8" font-family="Times,serif" font-size="14.00" fill="#000000">healthyCheck</text>
</g>
<!-- DEGRADING -->
<g id="node3" class="node">
<title>DEGRADING</title>
<path fill="#add8e6" stroke="#000000" d="M213.7317,-124.8C213.7317,-124.8 138.3525,-124.8 138.3525,-124.8 132.3525,-124.8 126.3525,-118.8 126.3525,-112.8 126.3525,-112.8 126.3525,-100.8 126.3525,-100.8 126.3525,-94.8 132.3525,-88.8 138.3525,-88.8 138.3525,-88.8 213.7317,-88.8 213.7317,-88.8 219.7317,-88.8 225.7317,-94.8 225.7317,-100.8 225.7317,-100.8 225.7317,-112.8 225.7317,-112.8 225.7317,-118.8 219.7317,-124.8 213.7317,-124.8"/>
<text text-anchor="middle" x="176.0421" y="-102.6" font-family="Times,serif" font-size="14.00" fill="#000000">DEGRADING</text>
</g>
<!-- UNKNOWN&#45;&gt;DEGRADING -->
<g id="edge2" class="edge">
<title>UNKNOWN-&gt;DEGRADING</title>
<path fill="none" stroke="#000000" d="M270.1178,-266.3793C272.4676,-237.452 272.9696,-180.1255 246.0421,-142.8 242.744,-138.2284 238.6913,-134.1953 234.2129,-130.646"/>
<polygon fill="#000000" stroke="#000000" points="235.9706,-127.6052 225.7628,-124.7678 231.9731,-133.3516 235.9706,-127.6052"/>
<text text-anchor="middle" x="314.5302" y="-191.4" font-family="Times,serif" font-size="14.00" fill="#000000">unhealthyCheck</text>
</g>
<!-- HEALTHY&#45;&gt;HEALTHY -->
<g id="edge8" class="edge">
<title>HEALTHY-&gt;HEALTHY</title>
<path fill="none" stroke="#000000" d="M82.1546,-203.7367C92.415,-203.1677 100.0842,-200.4555 100.0842,-195.6 100.0842,-192.5653 97.0884,-190.3679 92.3366,-189.0076"/>
<polygon fill="#000000" stroke="#000000" points="92.5664,-185.5025 82.1546,-187.4633 91.5166,-192.4233 92.5664,-185.5025"/>
<text text-anchor="middle" x="166.3637" y="-191.4" font-family="Times,serif" font-size="14.00" fill="#000000">healthyCheck [internal]</text>
</g>
<!-- HEALTHY&#45;&gt;DEGRADING -->
<g id="edge9" class="edge">
<title>HEALTHY-&gt;DEGRADING</title>
<path fill="none" stroke="#000000" d="M43.0251,-177.4655C45.1812,-166.0899 49.6802,-151.9046 59.0659,-142.8 61.4278,-140.5088 88.901,-132.0036 116.6267,-123.8357"/>
<polygon fill="#000000" stroke="#000000" points="117.7908,-127.1418 126.4034,-120.9714 115.8227,-120.4242 117.7908,-127.1418"/>
<text text-anchor="middle" x="105.5302" y="-147" font-family="Times,serif" font-size="14.00" fill="#000000">unhealthyCheck</text>
</g>
<!-- DEGRADING&#45;&gt;HEALTHY -->
<g id="edge3" class="edge">
<title>DEGRADING-&gt;HEALTHY</title>
<path fill="none" stroke="#000000" d="M172.5653,-124.9634C169.4999,-136.3508 163.9222,-150.5385 154.0421,-159.6 137.0783,-175.1584 113.3809,-183.9935 92.0661,-189.0104"/>
<polygon fill="#000000" stroke="#000000" points="91.2078,-185.6146 82.1546,-191.1182 92.664,-192.4615 91.2078,-185.6146"/>
<text text-anchor="middle" x="203.5302" y="-147" font-family="Times,serif" font-size="14.00" fill="#000000">healthyCheck</text>
</g>
<!-- UNHEALTHY -->
<g id="node4" class="node">
<title>UNHEALTHY</title>
<path fill="#add8e6" stroke="#000000" d="M215.3399,-36C215.3399,-36 136.7443,-36 136.7443,-36 130.7443,-36 124.7443,-30 124.7443,-24 124.7443,-24 124.7443,-12 124.7443,-12 124.7443,-6 130.7443,0 136.7443,0 136.7443,0 215.3399,0 215.3399,0 221.3399,0 227.3399,-6 227.3399,-12 227.3399,-12 227.3399,-24 227.3399,-24 227.3399,-30 221.3399,-36 215.3399,-36"/>
<text text-anchor="middle" x="176.0421" y="-13.8" font-family="Times,serif" font-size="14.00" fill="#000000">UNHEALTHY</text>
</g>
<!-- DEGRADING&#45;&gt;UNHEALTHY -->
<g id="edge4" class="edge">
<title>DEGRADING-&gt;UNHEALTHY</title>
<path fill="none" stroke="#000000" d="M176.0421,-88.4006C176.0421,-76.2949 176.0421,-60.2076 176.0421,-46.4674"/>
<polygon fill="#000000" stroke="#000000" points="179.5422,-46.072 176.0421,-36.072 172.5422,-46.0721 179.5422,-46.072"/>
<text text-anchor="middle" x="221.5302" y="-58.2" font-family="Times,serif" font-size="14.00" fill="#000000">unhealthyCheck</text>
</g>
<!-- UNHEALTHY&#45;&gt;UNKNOWN -->
<g id="edge7" class="edge">
<title>UNHEALTHY-&gt;UNKNOWN</title>
<path fill="none" stroke="#000000" d="M227.5678,-31.5779C242.4924,-37.0293 258.2066,-44.3637 271.0421,-54 326.0195,-95.2747 342.2519,-112.398 364.0421,-177.6 369.1135,-192.775 371.255,-199.3181 364.0421,-213.6 353.9332,-233.6161 335.2008,-249.3662 316.9486,-260.8781"/>
<polygon fill="#000000" stroke="#000000" points="314.8532,-258.053 308.0668,-266.1891 318.4457,-264.0609 314.8532,-258.053"/>
<text text-anchor="middle" x="383.0954" y="-147" font-family="Times,serif" font-size="14.00" fill="#000000">unknown</text>
</g>
<!-- UNHEALTHY&#45;&gt;HEALTHY -->
<g id="edge5" class="edge">
<title>UNHEALTHY-&gt;HEALTHY</title>
<path fill="none" stroke="#000000" d="M124.7525,-30.368C94.4127,-40.6091 58.4283,-58.5367 40.0659,-88.8 25.7191,-112.4451 28.4218,-144.7925 33.1768,-167.6747"/>
<polygon fill="#000000" stroke="#000000" points="29.7775,-168.5098 35.4521,-177.4569 36.5955,-166.9239 29.7775,-168.5098"/>
<text text-anchor="middle" x="79.5302" y="-102.6" font-family="Times,serif" font-size="14.00" fill="#000000">healthyCheck</text>
</g>
<!-- UNHEALTHY&#45;&gt;UNHEALTHY -->
<g id="edge6" class="edge">
<title>UNHEALTHY-&gt;UNHEALTHY</title>
<path fill="none" stroke="#000000" d="M227.3069,-25.9353C237.7282,-25.0709 245.1908,-22.4258 245.1908,-18 245.1908,-15.1647 242.1282,-13.0603 237.187,-11.6866"/>
<polygon fill="#000000" stroke="#000000" points="237.7418,-8.2309 227.3069,-10.0647 236.6079,-15.1384 237.7418,-8.2309"/>
<text text-anchor="middle" x="318.4703" y="-13.8" font-family="Times,serif" font-size="14.00" fill="#000000">unhealthyCheck [internal]</text>
</g>
</g>
</svg>